<svg width="18" height="18" viewBox="0 0 18 18" fill="none" xmlns="http://www.w3.org/2000/svg">
<path d="M5.65201 3.61685C6.04401 3.61685 6.36178 3.29907 6.36178 2.90707V1.13263C6.36178 0.740629 6.04401 0.422852 5.65201 0.422852C5.26001 0.422852 4.94223 0.740629 4.94223 1.13263V2.90707C4.94223 3.29907 5.26001 3.61685 5.65201 3.61685Z" fill="black"/>
<path d="M3.87759 5.39123C3.87759 4.99924 3.55981 4.68146 3.16781 4.68146H1.39337C1.00137 4.68146 0.683594 4.99924 0.683594 5.39123C0.683594 5.78323 1.00137 6.10101 1.39337 6.10101H3.16781C3.55981 6.10101 3.87759 5.78323 3.87759 5.39123Z" fill="black"/>
<path d="M3.16781 11.7794H1.39337C1.00137 11.7794 0.683594 12.0971 0.683594 12.4891C0.683594 12.8811 1.00137 13.1989 1.39337 13.1989H3.16781C3.55981 13.1989 3.87759 12.8811 3.87759 12.4891C3.87759 12.0971 3.55981 11.7794 3.16781 11.7794Z" fill="black"/>
<path d="M12.7498 0.422852C12.3578 0.422852 12.04 0.740629 12.04 1.13263V2.90707C12.04 3.29907 12.3578 3.61685 12.7498 3.61685C13.1418 3.61685 13.4596 3.29907 13.4596 2.90707V1.13263C13.4596 0.740629 13.1418 0.422852 12.7498 0.422852Z" fill="black"/>
<path d="M5.65201 14.2635C5.26001 14.2635 4.94223 14.5813 4.94223 14.9733V16.7478C4.94223 17.1398 5.26001 17.4575 5.65201 17.4575C6.04401 17.4575 6.36178 17.1398 6.36178 16.7478V14.9733C6.36178 14.5813 6.04401 14.2635 5.65201 14.2635Z" fill="black"/>
<path d="M12.7498 14.2635C12.3578 14.2635 12.04 14.5813 12.04 14.9733V16.7478C12.04 17.1398 12.3578 17.4575 12.7498 17.4575C13.1418 17.4575 13.4596 17.1398 13.4596 16.7478V14.9733C13.4596 14.5813 13.1418 14.2635 12.7498 14.2635Z" fill="black"/>
<path d="M15.234 6.10101H17.0085C17.4005 6.10101 17.7183 5.78323 17.7183 5.39123C17.7183 4.99924 17.4005 4.68146 17.0085 4.68146H15.234C14.842 4.68146 14.5243 4.99924 14.5243 5.39123C14.5243 5.78323 14.842 6.10101 15.234 6.10101Z" fill="black"/>
<path d="M17.0085 11.7794H15.234C14.842 11.7794 14.5243 12.0971 14.5243 12.4891C14.5243 12.8811 14.842 13.1989 15.234 13.1989H17.0085C17.4005 13.1989 17.7183 12.8811 17.7183 12.4891C17.7183 12.0971 17.4005 11.7794 17.0085 11.7794Z" fill="black"/>
<path fill-rule="evenodd" clip-rule="evenodd" d="M12.7498 4.68146C13.1418 4.68146 13.4596 4.99924 13.4596 5.39123V12.489C13.4596 12.881 13.1418 13.1988 12.7498 13.1988H5.65201C5.26001 13.1988 4.94223 12.881 4.94223 12.489V5.39123C4.94223 4.99924 5.26001 4.68146 5.65201 4.68146H12.7498ZM11.6851 11.7791C11.8811 11.7791 12.04 11.6202 12.04 11.4242V6.4558C12.04 6.2598 11.8811 6.10091 11.6851 6.10091H6.71663C6.52063 6.10091 6.36174 6.2598 6.36174 6.4558V11.4242C6.36174 11.6202 6.52063 11.7791 6.71663 11.7791H11.6851Z" fill="black"/>
</svg>
